<svg width="25" height="22" viewBox="0 0 25 22" fill="none" xmlns="http://www.w3.org/2000/svg">
<path d="M10.7422 18.9062C10.9714 18.9635 11.1862 18.9206 11.3867 18.7773C11.5872 18.6628 11.6875 18.4766 11.6875 18.2188V2.01953C11.6875 1.81901 11.6159 1.66146 11.4727 1.54688C11.043 1.17448 10.3698 0.830729 9.45312 0.515625C8.53646 0.200521 7.44792 0.0286458 6.1875 0C5.09896 0 4.08203 0.114583 3.13672 0.34375C2.19141 0.572917 1.40365 0.802083 0.773438 1.03125C0.286458 1.26042 0.0286458 1.66146 0 2.23438V18.1328C0 18.3906 0.114583 18.5911 0.34375 18.7344C0.544271 18.8776 0.773438 18.9206 1.03125 18.8633C1.7474 18.6055 2.5638 18.3763 3.48047 18.1758C4.42578 17.9753 5.32812 17.875 6.1875 17.875C6.93229 17.9036 7.73438 18.0182 8.59375 18.2188C9.42448 18.4479 10.1406 18.6771 10.7422 18.9062ZM14.0078 18.9062C14.6094 18.6771 15.3255 18.4479 16.1562 18.2188C17.0156 18.0182 17.8177 17.9036 18.5625 17.875C19.4219 17.875 20.3242 17.9753 21.2695 18.1758C22.1862 18.3763 23.0026 18.6055 23.7188 18.8633C23.9766 18.9206 24.2057 18.8776 24.4062 18.7344C24.6354 18.5911 24.75 18.3906 24.75 18.1328V2.23438C24.7214 1.66146 24.4635 1.26042 23.9766 1.03125C23.3464 0.802083 22.5586 0.572917 21.6133 0.34375C20.668 0.114583 19.651 0 18.5625 0C17.3021 0.0286458 16.2135 0.200521 15.2969 0.515625C14.3802 0.830729 13.707 1.17448 13.2773 1.54688C13.1341 1.66146 13.0625 1.81901 13.0625 2.01953V18.2188C13.0625 18.4766 13.1628 18.6628 13.3633 18.7773C13.5638 18.9206 13.7786 18.9635 14.0078 18.9062Z" fill="currentColor"/>
</svg>
