<svg  viewBox="0 0 11 12"  xmlns="http://www.w3.org/2000/svg">
<path d="M1.5 0.75C1.5 0.53125 1.42969 0.351562 1.28906 0.210938C1.14844 0.0703125 0.96875 0 0.75 0C0.53125 0 0.351562 0.0703125 0.210938 0.210938C0.0703125 0.351562 0 0.53125 0 0.75V1.5V8.625V11.25C0 11.4688 0.0703125 11.6484 0.210938 11.7891C0.351562 11.9297 0.53125 12 0.75 12C0.96875 12 1.14844 11.9297 1.28906 11.7891C1.42969 11.6484 1.5 11.4688 1.5 11.25V8.25L3 7.875C4 7.64062 4.96094 7.74219 5.88281 8.17969C6.96094 8.71094 8.07031 8.77344 9.21094 8.36719L10.0078 8.0625C10.3203 7.92188 10.4844 7.6875 10.5 7.35938V1.54688C10.4844 1.26562 10.3672 1.0625 10.1484 0.9375C9.94531 0.796875 9.71094 0.78125 9.44531 0.890625L9.23438 1.00781C8.67188 1.28906 8.09375 1.42969 7.5 1.42969C6.90625 1.42969 6.33594 1.28906 5.78906 1.00781C4.92969 0.601562 4.03906 0.507812 3.11719 0.726562L1.5 1.125V0.75Z"/>
</svg>
