<svg width="22" height="23" viewBox="0 0 22 23" fill="none" xmlns="http://www.w3.org/2000/svg">
<path d="M7.21875 2.0625C6.58854 2.11979 6.24479 2.46354 6.1875 3.09375V16.1562C6.1875 16.5286 6.13021 16.8724 6.01562 17.1875H18.9062C19.5365 17.1302 19.8802 16.7865 19.9375 16.1562V3.09375C19.8802 2.46354 19.5365 2.11979 18.9062 2.0625H7.21875ZM3.09375 19.25C2.20573 19.2214 1.47526 18.9206 0.902344 18.3477C0.329427 17.7747 0.0286458 17.0443 0 16.1562V3.4375C0.0572917 2.80729 0.401042 2.46354 1.03125 2.40625C1.66146 2.46354 2.00521 2.80729 2.0625 3.4375V16.1562C2.11979 16.7865 2.46354 17.1302 3.09375 17.1875C3.72396 17.1302 4.06771 16.7865 4.125 16.1562V3.09375C4.15365 2.20573 4.45443 1.47526 5.02734 0.902344C5.60026 0.329427 6.33073 0.0286458 7.21875 0H18.9062C19.7943 0.0286458 20.5247 0.329427 21.0977 0.902344C21.6706 1.47526 21.9714 2.20573 22 3.09375V16.1562C21.9714 17.0443 21.6706 17.7747 21.0977 18.3477C20.5247 18.9206 19.7943 19.2214 18.9062 19.25H3.09375ZM7.5625 4.46875C7.61979 3.83854 7.96354 3.49479 8.59375 3.4375H12.7188C13.349 3.49479 13.6927 3.83854 13.75 4.46875V7.90625C13.6927 8.53646 13.349 8.88021 12.7188 8.9375H8.59375C7.96354 8.88021 7.61979 8.53646 7.5625 7.90625V4.46875ZM16.1562 3.4375H17.5312C18.1615 3.49479 18.5052 3.83854 18.5625 4.46875C18.5052 5.09896 18.1615 5.44271 17.5312 5.5H16.1562C15.526 5.44271 15.1823 5.09896 15.125 4.46875C15.1823 3.83854 15.526 3.49479 16.1562 3.4375ZM16.1562 6.875H17.5312C18.1615 6.93229 18.5052 7.27604 18.5625 7.90625C18.5052 8.53646 18.1615 8.88021 17.5312 8.9375H16.1562C15.526 8.88021 15.1823 8.53646 15.125 7.90625C15.1823 7.27604 15.526 6.93229 16.1562 6.875ZM8.59375 10.3125H17.5312C18.1615 10.3698 18.5052 10.7135 18.5625 11.3438C18.5052 11.974 18.1615 12.3177 17.5312 12.375H8.59375C7.96354 12.3177 7.61979 11.974 7.5625 11.3438C7.61979 10.7135 7.96354 10.3698 8.59375 10.3125ZM8.59375 13.75H17.5312C18.1615 13.8073 18.5052 14.151 18.5625 14.7812C18.5052 15.4115 18.1615 15.7552 17.5312 15.8125H8.59375C7.96354 15.7552 7.61979 15.4115 7.5625 14.7812C7.61979 14.151 7.96354 13.8073 8.59375 13.75Z" fill="currentColor"/>
</svg>
