<svg  viewBox="0 0 12 11"  xmlns="http://www.w3.org/2000/svg">
<path d="M1.125 6.03906L5.34375 10C5.53125 10.1719 5.75 10.2578 6 10.2578C6.25 10.2578 6.46875 10.1719 6.65625 10L10.875 6.03906C11.6094 5.35156 11.9844 4.5 12 3.48438V3.34375C11.9844 2.5 11.7188 1.78125 11.2031 1.1875C10.6875 0.578125 10.0234 0.195312 9.21094 0.0390625C8.66406 -0.0390625 8.13281 0 7.61719 0.15625C7.11719 0.3125 6.67188 0.585938 6.28125 0.976562L6 1.25781L5.71875 0.976562C5.32812 0.585938 4.88281 0.3125 4.38281 0.15625C3.86719 0 3.33594 -0.0390625 2.78906 0.0390625C1.97656 0.195312 1.3125 0.578125 0.796875 1.1875C0.28125 1.78125 0.015625 2.5 0 3.34375V3.48438C0.015625 4.5 0.390625 5.35156 1.125 6.03906Z" />
</svg>
