<svg width="20" height="26" viewBox="0 0 20 26" fill="none" xmlns="http://www.w3.org/2000/svg">
<path d="M6.83203 0.226053C7.23307 -0.0890512 7.63411 -0.0747283 8.03516 0.269022C9.20964 1.35756 10.3268 2.56069 11.3867 3.8784C11.8451 3.21954 12.375 2.60366 12.9766 2.03074C13.3776 1.68699 13.7786 1.68699 14.1797 2.03074C14.9245 2.74689 15.5977 3.54897 16.1992 4.43699C16.8294 5.29637 17.3594 6.18439 17.7891 7.10105C18.2474 7.98907 18.6055 8.84845 18.8633 9.67918C19.1211 10.5099 19.25 11.2547 19.25 11.9136C19.2214 13.7469 18.7917 15.4227 17.9609 16.9409C17.1016 18.4591 15.9414 19.6766 14.4805 20.5932C13.0482 21.5099 11.4297 21.9826 9.625 22.0112C7.82031 21.9826 6.1875 21.5099 4.72656 20.5932C3.29427 19.6766 2.14844 18.4591 1.28906 16.9409C0.458333 15.4227 0.0286458 13.7469 0 11.9136C0.0572917 10.1948 0.701823 8.30418 1.93359 6.24168C3.16536 4.15053 4.79818 2.14532 6.83203 0.226053ZM9.71094 17.8862C10.7708 17.8862 11.7591 17.5854 12.6758 16.9839C13.5638 16.325 14.1224 15.4513 14.3516 14.3628C14.5521 13.3029 14.3945 12.2573 13.8789 11.2261C13.5924 10.825 13.263 10.7964 12.8906 11.1401L11.8164 12.3862C11.444 12.7013 11.0859 12.687 10.7422 12.3432C10.3698 11.8849 9.92578 11.3263 9.41016 10.6675C8.89453 10.0086 8.4362 9.43569 8.03516 8.94871C7.69141 8.60496 7.34766 8.59064 7.00391 8.90574C6.25911 9.82241 5.71484 10.6102 5.37109 11.269C4.9987 11.9279 4.8125 12.5724 4.8125 13.2026C4.84115 14.6922 5.3138 15.838 6.23047 16.6401C7.14714 17.4708 8.30729 17.8862 9.71094 17.8862Z" fill="currentColor"/>
</svg>
