<svg width="9" height="16" viewBox="0 0 9 16" fill="none" xmlns="http://www.w3.org/2000/svg">
<path d="M0.316406 7.06641C0.105469 7.30078 0 7.57031 0 7.875C0 8.17969 0.105469 8.44922 0.316406 8.68359L7.06641 15.4336C7.30078 15.6445 7.57031 15.75 7.875 15.75C8.17969 15.75 8.44922 15.6445 8.68359 15.4336C8.89453 15.1992 9 14.9297 9 14.625C9 14.3203 8.89453 14.0508 8.68359 13.8164L2.70703 7.875L8.68359 1.93359C8.89453 1.69922 9 1.42969 9 1.125C9 0.820312 8.89453 0.550781 8.68359 0.316406C8.44922 0.105469 8.17969 0 7.875 0C7.57031 0 7.30078 0.105469 7.06641 0.316406L0.316406 7.06641Z" fill="white"/>
</svg>
