<svg width="20" height="20" viewBox="0 0 20 20" fill="none" xmlns="http://www.w3.org/2000/svg">
<path d="M0 1.375C0 0.973958 0.128906 0.644531 0.386719 0.386719C0.644531 0.128906 0.973958 0 1.375 0H17.875C18.276 0 18.6055 0.128906 18.8633 0.386719C19.1211 0.644531 19.25 0.973958 19.25 1.375C19.25 1.77604 19.1211 2.10547 18.8633 2.36328C18.6055 2.62109 18.276 2.75 17.875 2.75H1.375C0.973958 2.75 0.644531 2.62109 0.386719 2.36328C0.128906 2.10547 0 1.77604 0 1.375ZM0 8.25C0 7.84896 0.128906 7.51953 0.386719 7.26172C0.644531 7.00391 0.973958 6.875 1.375 6.875H17.875C18.276 6.875 18.6055 7.00391 18.8633 7.26172C19.1211 7.51953 19.25 7.84896 19.25 8.25C19.25 8.65104 19.1211 8.98047 18.8633 9.23828C18.6055 9.49609 18.276 9.625 17.875 9.625H1.375C0.973958 9.625 0.644531 9.49609 0.386719 9.23828C0.128906 8.98047 0 8.65104 0 8.25ZM19.25 15.125C19.25 15.526 19.1211 15.8555 18.8633 16.1133C18.6055 16.3711 18.276 16.5 17.875 16.5H1.375C0.973958 16.5 0.644531 16.3711 0.386719 16.1133C0.128906 15.8555 0 15.526 0 15.125C0 14.724 0.128906 14.3945 0.386719 14.1367C0.644531 13.8789 0.973958 13.75 1.375 13.75H17.875C18.276 13.75 18.6055 13.8789 18.8633 14.1367C19.1211 14.3945 19.25 14.724 19.25 15.125Z" fill="currentColor"/>
</svg>
