<?xml version="1.0" standalone="no"?>
<!DOCTYPE svg PUBLIC "-//W3C//DTD SVG 20010904//EN"
 "http://www.w3.org/TR/2001/REC-SVG-20010904/DTD/svg10.dtd">
<svg version="1.0" xmlns="http://www.w3.org/2000/svg"
 width="150.000000pt" height="150.000000pt" viewBox="0 0 150.000000 150.000000"
 preserveAspectRatio="xMidYMid meet">

<g transform="translate(0.000000,150.000000) scale(0.100000,-0.100000)"
fill="#000000" stroke="none">
<path d="M370 1400 l0 -90 45 0 45 0 0 90 0 90 -45 0 -45 0 0 -90z"/>
<path d="M540 1400 l0 -90 45 0 45 0 0 90 0 90 -45 0 -45 0 0 -90z"/>
<path d="M710 1400 l0 -90 45 0 45 0 0 90 0 90 -45 0 -45 0 0 -90z"/>
<path d="M877 1483 c-4 -3 -7 -44 -7 -90 l0 -83 50 0 50 0 0 90 0 90 -43 0
c-24 0 -47 -3 -50 -7z"/>
<path d="M1050 1400 l0 -90 45 0 45 0 0 90 0 90 -45 0 -45 0 0 -90z"/>
<path d="M279 1231 l-29 -29 0 -450 0 -450 31 -26 31 -26 439 0 c283 0 447 4
460 10 48 26 49 41 49 495 0 462 -1 468 -55 493 -19 9 -145 12 -461 12 l-436
0 -29 -29z m901 -475 c0 -377 -2 -425 -16 -430 -9 -3 -197 -6 -418 -6 -299 0
-405 3 -414 12 -9 9 -12 117 -12 423 0 227 3 415 7 418 3 4 197 7 430 7 l423
0 0 -424z"/>
<path d="M400 755 l0 -355 350 0 350 0 0 355 0 355 -350 0 -350 0 0 -355z"/>
<path d="M20 1095 l0 -45 90 0 90 0 0 45 0 45 -90 0 -90 0 0 -45z"/>
<path d="M1310 1095 l0 -45 90 0 90 0 0 45 0 45 -90 0 -90 0 0 -45z"/>
<path d="M20 920 l0 -50 90 0 90 0 0 50 0 50 -90 0 -90 0 0 -50z"/>
<path d="M1310 920 l0 -51 88 3 87 3 3 48 3 47 -90 0 -91 0 0 -50z"/>
<path d="M20 750 l0 -50 90 0 90 0 0 50 0 50 -90 0 -90 0 0 -50z"/>
<path d="M1310 750 l0 -50 91 0 90 0 -3 48 -3 47 -87 3 -88 3 0 -51z"/>
<path d="M20 585 l0 -45 90 0 90 0 0 45 0 45 -90 0 -90 0 0 -45z"/>
<path d="M1308 585 l4 -45 89 0 89 0 0 45 0 45 -93 0 -92 0 3 -45z"/>
<path d="M20 415 l0 -45 90 0 90 0 0 45 0 45 -90 0 -90 0 0 -45z"/>
<path d="M1310 415 l0 -45 90 0 90 0 0 45 0 45 -90 0 -90 0 0 -45z"/>
<path d="M370 110 l0 -90 45 0 45 0 0 90 0 90 -45 0 -45 0 0 -90z"/>
<path d="M540 110 l0 -90 45 0 45 0 0 90 0 90 -45 0 -45 0 0 -90z"/>
<path d="M710 110 l0 -90 45 0 45 0 0 90 0 90 -45 0 -45 0 0 -90z"/>
<path d="M870 110 l0 -90 50 0 50 0 0 90 0 90 -50 0 -50 0 0 -90z"/>
<path d="M1050 110 l0 -90 45 0 45 0 0 90 0 90 -45 0 -45 0 0 -90z"/>
</g>
</svg>
