<svg  viewBox="0 0 12 12"  xmlns="http://www.w3.org/2000/svg">
<path d="M4.125 0.5625C4.09375 0.21875 3.90625 0.03125 3.5625 0C3.21875 0.03125 3.03125 0.21875 3 0.5625V1.5C2.57812 1.51562 2.22656 1.66406 1.94531 1.94531C1.66406 2.22656 1.51562 2.57812 1.5 3H0.5625C0.21875 3.03125 0.03125 3.21875 0 3.5625C0.03125 3.90625 0.21875 4.09375 0.5625 4.125H1.5V5.4375H0.5625C0.21875 5.46875 0.03125 5.65625 0 6C0.03125 6.34375 0.21875 6.53125 0.5625 6.5625H1.5V7.875H0.5625C0.21875 7.90625 0.03125 8.09375 0 8.4375C0.03125 8.78125 0.21875 8.96875 0.5625 9H1.5C1.51562 9.42188 1.66406 9.77344 1.94531 10.0547C2.22656 10.3359 2.57812 10.4844 3 10.5V11.4375C3.03125 11.7812 3.21875 11.9688 3.5625 12C3.90625 11.9688 4.09375 11.7812 4.125 11.4375V10.5H5.4375V11.4375C5.46875 11.7812 5.65625 11.9688 6 12C6.34375 11.9688 6.53125 11.7812 6.5625 11.4375V10.5H7.875V11.4375C7.90625 11.7812 8.09375 11.9688 8.4375 12C8.78125 11.9688 8.96875 11.7812 9 11.4375V10.5C9.42188 10.4844 9.77344 10.3359 10.0547 10.0547C10.3359 9.77344 10.4844 9.42188 10.5 9H11.4375C11.7812 8.96875 11.9688 8.78125 12 8.4375C11.9688 8.09375 11.7812 7.90625 11.4375 7.875H10.5V6.5625H11.4375C11.7812 6.53125 11.9688 6.34375 12 6C11.9688 5.65625 11.7812 5.46875 11.4375 5.4375H10.5V4.125H11.4375C11.7812 4.09375 11.9688 3.90625 12 3.5625C11.9688 3.21875 11.7812 3.03125 11.4375 3H10.5C10.4844 2.57812 10.3359 2.22656 10.0547 1.94531C9.77344 1.66406 9.42188 1.51562 9 1.5V0.5625C8.96875 0.21875 8.78125 0.03125 8.4375 0C8.09375 0.03125 7.90625 0.21875 7.875 0.5625V1.5H6.5625V0.5625C6.53125 0.21875 6.34375 0.03125 6 0C5.65625 0.03125 5.46875 0.21875 5.4375 0.5625V1.5H4.125V0.5625ZM3.75 3H8.25C8.46875 3 8.64844 3.07031 8.78906 3.21094C8.92969 3.35156 9 3.53125 9 3.75V8.25C9 8.46875 8.92969 8.64844 8.78906 8.78906C8.64844 8.92969 8.46875 9 8.25 9H3.75C3.53125 9 3.35156 8.92969 3.21094 8.78906C3.07031 8.64844 3 8.46875 3 8.25V3.75C3 3.53125 3.07031 3.35156 3.21094 3.21094C3.35156 3.07031 3.53125 3 3.75 3ZM8.25 3.75H3.75V8.25H8.25V3.75Z" />
</svg>
