<svg width="22" height="25" viewBox="0 0 22 25" fill="none" xmlns="http://www.w3.org/2000/svg">
<path d="M17.918 15.4688L14.8672 15.2539C14.638 15.2539 14.4232 15.3255 14.2227 15.4688C14.0508 15.5833 13.9362 15.7552 13.8789 15.9844L13.1055 18.9922C12.4466 19.1641 11.7448 19.25 11 19.25C10.2552 19.25 9.55339 19.1641 8.89453 18.9922L8.12109 15.9844C8.0638 15.7552 7.94922 15.5833 7.77734 15.4688C7.57682 15.3255 7.36198 15.2539 7.13281 15.2539L4.08203 15.4688C3.30859 14.2943 2.86458 12.9479 2.75 11.4297L5.37109 9.79688C5.57161 9.68229 5.70052 9.51042 5.75781 9.28125C5.84375 9.08073 5.84375 8.86589 5.75781 8.63672L4.59766 5.80078C5.51432 4.68359 6.66016 3.85286 8.03516 3.30859L10.3984 5.28516C10.5703 5.42839 10.7708 5.5 11 5.5C11.2292 5.5 11.4297 5.42839 11.6016 5.28516L13.9648 3.30859C15.3398 3.85286 16.4857 4.68359 17.4023 5.80078L16.2422 8.63672C16.1562 8.86589 16.1562 9.08073 16.2422 9.28125C16.2995 9.51042 16.4284 9.68229 16.6289 9.79688L19.25 11.4727C19.1354 12.9622 18.6914 14.2943 17.918 15.4688ZM11 22C13.0052 21.9714 14.8385 21.4844 16.5 20.5391C18.1615 19.5651 19.5078 18.2188 20.5391 16.5C21.513 14.7526 22 12.9193 22 11C22 9.08073 21.513 7.2474 20.5391 5.5C19.5078 3.78125 18.1615 2.4349 16.5 1.46094C14.8385 0.515625 13.0052 0.0286458 11 0C8.99479 0.0286458 7.16146 0.515625 5.5 1.46094C3.83854 2.4349 2.49219 3.78125 1.46094 5.5C0.486979 7.2474 0 9.08073 0 11C0 12.9193 0.486979 14.7526 1.46094 16.5C2.49219 18.2188 3.83854 19.5651 5.5 20.5391C7.16146 21.4844 8.99479 21.9714 11 22ZM11.6016 7.99219C11.2005 7.73438 10.7995 7.73438 10.3984 7.99219L8.33594 9.49609C7.96354 9.8112 7.83464 10.1979 7.94922 10.6562L8.76562 13.0625C8.9375 13.5208 9.2526 13.7643 9.71094 13.793H12.2891C12.7474 13.7643 13.0625 13.5208 13.2344 13.0625L14.0508 10.6562C14.1654 10.1979 14.0365 9.8112 13.6641 9.49609L11.6016 7.99219Z" fill="currentColor"/>
</svg>
