<?xml version="1.0" encoding="UTF-8"?>
<svg version="1.1" xmlns="http://www.w3.org/2000/svg" width="323" height="262">
<path d="M0 0 C1.04414063 0.78117187 2.08828125 1.56234375 3.1640625 2.3671875 C4.12570312 3.08648437 5.08734375 3.80578125 6.078125 4.546875 C6.76648438 5.14757812 7.45484375 5.74828125 8.1640625 6.3671875 C8.1640625 7.0271875 8.1640625 7.6871875 8.1640625 8.3671875 C8.8240625 8.3671875 9.4840625 8.3671875 10.1640625 8.3671875 C32.55600419 29.45655086 46.38584199 61.50939248 47.41015625 92.0859375 C48.01150042 124.62266588 38.58516354 151.44791088 19.1640625 177.3671875 C18.5040625 178.3571875 17.8440625 179.3471875 17.1640625 180.3671875 C16.5040625 180.3671875 15.8440625 180.3671875 15.1640625 180.3671875 C15.1640625 181.0271875 15.1640625 181.6871875 15.1640625 182.3671875 C14.5040625 182.3671875 13.8440625 182.3671875 13.1640625 182.3671875 C12.8340625 183.3571875 12.5040625 184.3471875 12.1640625 185.3671875 C11.5040625 185.3671875 10.8440625 185.3671875 10.1640625 185.3671875 C10.1640625 186.0271875 10.1640625 186.6871875 10.1640625 187.3671875 C9.5040625 187.3671875 8.8440625 187.3671875 8.1640625 187.3671875 C8.1640625 188.0271875 8.1640625 188.6871875 8.1640625 189.3671875 C6.14097148 191.16886076 4.11744613 192.84002633 1.9765625 194.4921875 C1.34089355 194.98428711 0.70522461 195.47638672 0.05029297 195.98339844 C-26.30286813 216.08005367 -59.03689535 225.71658677 -92.11425781 221.54223633 C-116.39808724 218.15172423 -138.00836479 208.66911774 -156.84765625 192.99609375 C-158.94434304 191.22398776 -158.94434304 191.22398776 -161.8359375 189.3671875 C-161.8359375 188.7071875 -161.8359375 188.0471875 -161.8359375 187.3671875 C-162.4959375 187.3671875 -163.1559375 187.3671875 -163.8359375 187.3671875 C-163.8359375 186.7071875 -163.8359375 186.0471875 -163.8359375 185.3671875 C-164.4959375 185.3671875 -165.1559375 185.3671875 -165.8359375 185.3671875 C-169.04396546 181.87685308 -171.90988826 178.095301 -174.8359375 174.3671875 C-175.40183594 173.65433594 -175.96773438 172.94148437 -176.55078125 172.20703125 C-186.34674547 159.55282813 -192.1219778 145.51801938 -196.8359375 130.3671875 C-197.21363281 129.20703125 -197.59132812 128.046875 -197.98046875 126.8515625 C-198.8359375 123.3671875 -198.8359375 123.3671875 -198.8359375 116.3671875 C-215.3359375 116.3671875 -231.8359375 116.3671875 -248.8359375 116.3671875 C-249.61743358 111.67821102 -249.96454697 107.73384357 -249.96875 103.03515625 C-249.96970673 102.35794022 -249.97066345 101.68072418 -249.97164917 100.98298645 C-249.97232539 99.56360785 -249.97051031 98.14422606 -249.96630859 96.72485352 C-249.96091034 94.54371322 -249.96629369 92.36277494 -249.97265625 90.18164062 C-249.97199619 88.79947871 -249.97071652 87.41731692 -249.96875 86.03515625 C-249.96762207 84.77985107 -249.96649414 83.5245459 -249.96533203 82.23120117 C-249.8359375 79.3671875 -249.8359375 79.3671875 -248.8359375 78.3671875 C-247.27046702 78.27392034 -245.70080978 78.24973168 -244.13256836 78.25366211 C-243.13160629 78.25373764 -242.13064423 78.25381317 -241.09934998 78.25389099 C-240.0108223 78.25905228 -238.92229462 78.26421356 -237.80078125 78.26953125 C-236.1382003 78.27165367 -236.1382003 78.27165367 -234.44203186 78.27381897 C-230.88580681 78.27943717 -227.32964367 78.29199275 -223.7734375 78.3046875 C-221.36914153 78.30970016 -218.96484458 78.31426347 -216.56054688 78.31835938 C-210.65232246 78.32941251 -204.7441344 78.34616833 -198.8359375 78.3671875 C-198.77512497 77.76259201 -198.71431244 77.15799652 -198.6516571 76.53507996 C-198.5676918 75.73483902 -198.4837265 74.93459808 -198.3972168 74.11010742 C-198.31577927 73.31988693 -198.23434174 72.52966644 -198.1504364 71.71549988 C-195.32774218 50.6388991 -183.20895048 31.31082285 -169.8359375 15.3671875 C-169.39378906 14.779375 -168.95164062 14.1915625 -168.49609375 13.5859375 C-151.82085353 -7.90434169 -121.79502011 -20.32914199 -95.8359375 -24.6328125 C-94.8867041 -24.80627197 -93.9374707 -24.97973145 -92.95947266 -25.15844727 C-59.69221076 -30.2106819 -26.70243585 -19.47838395 0 0 Z " fill="#FDB638" transform="translate(263.8359375,32.6328125)"/>
</svg>
